<svg xmlns="http://www.w3.org/2000/svg" viewBox="0 0 256 256" role="img" aria-label="Original abstract msx contact portrait">
<rect width="256" height="256" fill="#061006"/>
<g fill="none" stroke="#9cff57" stroke-width="5" opacity=".9">
<path d="M32 224h192M48 208c12-46 38-68 80-68s68 22 80 68"/>
<path d="M88 104c0-36 16-62 40-62s40 26 40 62c0 27-18 50-40 50s-40-23-40-50z"/>
<path d="M98 98h20M138 98h20M112 126h32"/>
<path d="M24 24h56M176 24h56M24 232h36M196 232h36" opacity=".55"/>
</g>
<g fill="#9cff57" opacity=".22"><circle cx="128" cy="104" r="72"/><rect x="52" y="184" width="152" height="22" rx="4"/></g>
<text x="16" y="246" fill="#9cff57" font-family="monospace" font-size="12">MSX // CONTACT // SIMULATION ASSET</text>
</svg>